<svg width="60" height="60" viewBox="0 0 60 60" fill="none" xmlns="http://www.w3.org/2000/svg">
<g clip-path="url(#clip0_81_6364)">
<path fill-rule="evenodd" clip-rule="evenodd" d="M6.7672 49.9281C4.68208 49.9281 2.99634 51.6187 2.99634 53.706C2.99634 55.7898 4.68196 57.4807 6.7672 57.4807C8.8488 57.4807 10.5381 55.7898 10.5381 53.706C10.5381 51.6186 8.8488 49.9281 6.7672 49.9281Z" fill="#999DA3"/>
<path fill-rule="evenodd" clip-rule="evenodd" d="M5.9541 21.2881C-3.65164 27.6624 -1.5699 44.3921 11.7296 44.3572L13.6781 44.3605C13.6677 44.4866 13.6641 44.6131 13.6641 44.7429C13.6641 47.2371 15.6862 49.2613 18.1778 49.2613C19.4465 49.2613 20.5889 48.7386 21.409 47.9002C23.9706 50.2051 27.3561 51.6117 31.0707 51.6117C36.4048 51.6117 41.0622 48.7178 43.5679 44.4133L49.028 44.4202C61.1183 43.9536 63.5331 26.1012 54.6913 20.5165C54.8066 19.9867 54.8664 19.4323 54.8664 18.8641C54.8664 14.5631 51.3828 11.0726 47.0829 11.0726C46.3854 11.0726 45.7126 11.1675 45.0679 11.3393C39.3798 0.0115979 23.6554 -0.367273 17.2597 9.98519C10.3523 8.09435 4.11072 14.4965 5.9541 21.2881Z" fill="#999DA3"/>
<path fill-rule="evenodd" clip-rule="evenodd" d="M10.6711 26.6379C10.6711 29.2864 11.4807 31.4615 13.0962 33.1629C14.7118 34.8606 16.7864 35.7098 19.3203 35.7098C20.8305 35.7098 22.1308 35.4186 23.2171 34.8328C24.307 34.247 24.8503 33.556 24.8503 32.7597C24.8503 32.2544 24.682 31.8228 24.3492 31.4686C24.0164 31.1108 23.6238 30.9318 23.1682 30.9318C22.8772 30.9318 22.618 30.9879 22.39 31.1003L21.7067 31.395C20.8936 31.7527 20.0842 31.9319 19.271 31.9319C17.922 31.9319 16.8389 31.444 16.0189 30.4654C15.1989 29.4899 14.7888 28.2062 14.7888 26.6134C14.7888 25.0031 15.2058 23.7088 16.0433 22.723C16.8809 21.7408 17.9568 21.2496 19.2709 21.2496C19.9368 21.2496 20.6938 21.4111 21.5384 21.7375C22.2357 22.011 22.7369 22.1512 23.0487 22.1512C23.4867 22.1512 23.8688 21.9724 24.1912 21.6143C24.5171 21.2567 24.6784 20.8321 24.6784 20.3447C24.6784 19.5343 24.1772 18.8642 23.1679 18.3346C22.162 17.8049 20.9111 17.5415 19.4181 17.5415C16.8669 17.5415 14.7712 18.3906 13.1311 20.0884C11.4911 21.7896 10.6711 23.9719 10.6711 26.6379Z" fill="#E9EAEB"/>
<path fill-rule="evenodd" clip-rule="evenodd" d="M26.7253 26.5889C26.7253 29.2724 27.535 31.4721 29.1503 33.1875C30.7661 34.9028 32.8161 35.7589 35.3008 35.7589C37.8031 35.7589 39.8565 34.8924 41.4651 33.163C43.0739 31.43 43.8763 29.2548 43.8763 26.638C43.8763 23.9894 43.0738 21.8039 41.4651 20.0884C39.8565 18.3765 37.8099 17.517 35.3251 17.517C32.8091 17.517 30.745 18.3659 29.1398 20.0675C27.5315 21.7652 26.7253 23.9404 26.7253 26.5889ZM35.3009 32.2473C33.9551 32.2473 32.8721 31.7352 32.0627 30.711C31.2498 29.6864 30.8431 28.3218 30.8431 26.6133C30.8431 24.9542 31.2603 23.6175 32.0979 22.6037C32.9353 21.5863 34.0043 21.0777 35.3009 21.0777C36.6501 21.0777 37.7296 21.5898 38.5424 22.6143C39.3556 23.6384 39.762 24.9893 39.762 26.6623C39.762 28.3218 39.352 29.6653 38.5286 30.7002C37.7084 31.7316 36.6326 32.2473 35.3009 32.2473Z" fill="#E9EAEB"/>
<path d="M54.6912 20.5165C54.8065 19.9867 54.8663 19.4322 54.8663 18.8641C54.8663 15.8042 53.1023 13.1561 50.5366 11.8817C51.1501 14.2748 51.4764 16.7605 51.4764 19.312C51.4764 33.5753 41.3702 45.8101 26.9749 51.0203C28.2734 51.4045 29.6477 51.6116 31.0706 51.6116C36.4047 51.6116 41.0621 48.7176 43.5677 44.4132L49.0279 44.4201C61.1182 43.9535 63.5331 26.1011 54.6912 20.5165Z" fill="#6A7178"/>
</g>
<defs>
<clipPath id="clip0_81_6364">
<rect width="60" height="60" fill="white"/>
</clipPath>
</defs>
</svg>
