<svg width="60" height="60" viewBox="0 0 60 60" fill="none" xmlns="http://www.w3.org/2000/svg">
<path d="M6.35291 29.2617C6.35291 29.2617 8.72338 32.7442 13.6917 35.6919C13.6917 35.6919 10.0934 5.28152 33.5383 0C27.5316 22.0454 41.1789 28.2626 46.1537 16.6155C54.4614 27.7075 48.1536 37.3846 48.1536 37.3846C51.5601 37.8754 54.4216 34.1537 54.4216 34.1537C54.4471 34.6121 54.4614 35.0737 54.4614 35.5386C54.4615 49.0482 43.5098 60 30.0001 60C16.4903 60 5.53857 49.0482 5.53857 35.5385C5.53857 33.3684 5.82264 31.2649 6.35291 29.2617Z" fill="#FF5C5C"/>
<path d="M54.4216 34.1537C54.4216 34.1537 51.5602 37.8754 48.1536 37.3846C48.1536 37.3846 54.4615 27.7075 46.1537 16.6155C41.179 28.2626 27.5317 22.0454 33.5384 0C32.2827 0.282891 31.1052 0.63832 30 1.0568V60C43.5097 60 54.4615 49.0482 54.4615 35.5385C54.4615 35.0736 54.4472 34.6121 54.4216 34.1537Z" fill="#FF3333"/>
<path d="M19.2722 49.2722C19.2722 55.1969 24.0753 60 30 60C35.9248 60 40.7278 55.1969 40.7278 49.2722C40.7278 46.101 39.3519 43.2512 37.1644 41.2873C33.0167 46.9222 27.106 38.3744 31.7124 32.1323C31.7124 32.1323 19.2722 33.6913 19.2722 49.2722Z" fill="#F6B90C"/>
<path d="M40.7278 49.2722C40.7278 46.101 39.3519 43.2512 37.1644 41.2873C33.0166 46.9222 27.1059 38.3744 31.7123 32.1323C31.7123 32.1323 31.0364 32.2173 30 32.5444V60C35.9248 60 40.7278 55.1969 40.7278 49.2722Z" fill="#F6B90C"/>
</svg>
