<svg width="70" height="70" viewBox="0 0 70 70" fill="none" xmlns="http://www.w3.org/2000/svg">
<g clip-path="url(#clip0_81_993)">
<path d="M56.8746 18.9213C53.4311 18.9213 51.5964 17.5926 50.1225 16.5248C48.8682 15.6164 47.962 14.9601 45.9365 14.9601C43.9112 14.9601 43.005 15.6164 41.751 16.5248C40.2769 17.5926 38.4424 18.9213 34.9992 18.9213C31.5559 18.9213 29.7213 17.5926 28.2473 16.5248C26.9933 15.6164 26.0873 14.9601 24.062 14.9601C22.0366 14.9601 21.1306 15.6163 19.8766 16.5248C18.4025 17.5926 16.568 18.9213 13.1247 18.9213C9.68147 18.9213 7.84684 17.5926 6.37287 16.5248C5.11889 15.6164 4.21285 14.9601 2.1875 14.9601C0.979316 14.9601 0 13.9807 0 12.7726C0 11.5644 0.979316 10.5851 2.1875 10.5851C5.63076 10.5851 7.46539 11.9138 8.93936 12.9816C10.1933 13.89 11.0994 14.5463 13.1247 14.5463C15.1501 14.5463 16.0561 13.8901 17.3101 12.9816C18.7842 11.9138 20.6187 10.5851 24.062 10.5851C27.5054 10.5851 29.3398 11.9138 30.8138 12.9816C32.0678 13.89 32.9738 14.5463 34.9992 14.5463C37.0244 14.5463 37.9306 13.8901 39.1846 12.9816C40.6587 11.9138 42.4931 10.5851 45.9365 10.5851C49.3801 10.5851 51.2147 11.9138 52.6887 12.9816C53.9429 13.89 54.8491 14.5463 56.8746 14.5463C58.9001 14.5463 59.8063 13.89 61.0604 12.9816C62.5345 11.9138 64.369 10.5851 67.8125 10.5851C69.0207 10.5851 70 11.5644 70 12.7726C70 13.9807 69.0207 14.9601 67.8125 14.9601C65.787 14.9601 64.8807 15.6164 63.6266 16.5248C62.1526 17.5926 60.318 18.9213 56.8746 18.9213ZM63.6266 29.6498C64.8807 28.7414 65.787 28.0851 67.8125 28.0851C69.0207 28.0851 70 27.1057 70 25.8976C70 24.6894 69.0207 23.7101 67.8125 23.7101C64.369 23.7101 62.5343 25.0388 61.0604 26.1066C59.8063 27.015 58.9001 27.6713 56.8746 27.6713C54.8491 27.6713 53.9429 27.015 52.6887 26.1066C51.2146 25.039 49.3801 23.7101 45.9365 23.7101C42.4931 23.7101 40.6585 25.0388 39.1846 26.1066C37.9306 27.015 37.0244 27.6713 34.9992 27.6713C32.9738 27.6713 32.0678 27.0151 30.8138 26.1066C29.3397 25.0388 27.5054 23.7101 24.062 23.7101C20.6187 23.7101 18.7841 25.0388 17.3101 26.1066C16.0561 27.015 15.1501 27.6713 13.1247 27.6713C11.0994 27.6713 10.1933 27.0151 8.93936 26.1066C7.46525 25.0388 5.63076 23.7101 2.1875 23.7101C0.979316 23.7101 0 24.6894 0 25.8976C0 27.1057 0.979316 28.0851 2.1875 28.0851C4.21285 28.0851 5.11889 28.7413 6.37287 29.6498C7.84697 30.7176 9.68147 32.0463 13.1247 32.0463C16.568 32.0463 18.4026 30.7176 19.8766 29.6498C21.1306 28.7414 22.0366 28.0851 24.062 28.0851C26.0873 28.0851 26.9933 28.7413 28.2473 29.6498C29.7214 30.7176 31.5559 32.0463 34.9992 32.0463C38.4424 32.0463 40.2771 30.7176 41.751 29.6498C43.005 28.7414 43.9112 28.0851 45.9365 28.0851C47.962 28.0851 48.8682 28.7414 50.1225 29.6498C51.5966 30.7174 53.4311 32.0463 56.8746 32.0463C60.318 32.0463 62.1526 30.7176 63.6266 29.6498ZM63.6266 43.1885C64.8807 42.2802 65.787 41.6238 67.8125 41.6238C69.0207 41.6238 70 40.6444 70 39.4363C70 38.2281 69.0207 37.2488 67.8125 37.2488C64.369 37.2488 62.5343 38.5775 61.0604 39.6453C59.8063 40.5537 58.9001 41.2101 56.8746 41.2101C54.8491 41.2101 53.9429 40.5537 52.6887 39.6453C51.2146 38.5777 49.3801 37.2488 45.9365 37.2488C42.4931 37.2488 40.6585 38.5775 39.1846 39.6453C37.9306 40.5537 37.0244 41.2101 34.9992 41.2101C32.9738 41.2101 32.0678 40.5538 30.8138 39.6453C29.3397 38.5775 27.5054 37.2488 24.062 37.2488C20.6187 37.2488 18.7841 38.5775 17.3101 39.6453C16.0561 40.5537 15.1501 41.2101 13.1247 41.2101C11.0994 41.2101 10.1933 40.5538 8.93936 39.6453C7.46525 38.5775 5.63076 37.2488 2.1875 37.2488C0.979316 37.2488 0 38.2281 0 39.4363C0 40.6444 0.979316 41.6238 2.1875 41.6238C4.21285 41.6238 5.11889 42.28 6.37287 43.1885C7.84697 44.2563 9.68147 45.5851 13.1247 45.5851C16.568 45.5851 18.4026 44.2563 19.8766 43.1885C21.1306 42.2802 22.0366 41.6238 24.062 41.6238C26.0873 41.6238 26.9933 42.28 28.2473 43.1885C29.7214 44.2563 31.5559 45.5851 34.9992 45.5851C38.4424 45.5851 40.2771 44.2563 41.751 43.1885C43.005 42.2802 43.9112 41.6238 45.9365 41.6238C47.962 41.6238 48.8682 42.2802 50.1225 43.1885C51.5966 44.2561 53.4311 45.5851 56.8746 45.5851C60.318 45.5851 62.1526 44.2563 63.6266 43.1885ZM63.6266 58.501C64.8807 57.5927 65.787 56.9363 67.8125 56.9363C69.0207 56.9363 70 55.9569 70 54.7488C70 53.5406 69.0207 52.5613 67.8125 52.5613C64.369 52.5613 62.5343 53.89 61.0604 54.9578C59.8063 55.8662 58.9001 56.5226 56.8746 56.5226C54.8491 56.5226 53.9429 55.8662 52.6887 54.9578C51.2146 53.8902 49.3801 52.5613 45.9365 52.5613C42.4931 52.5613 40.6585 53.89 39.1846 54.9578C37.9306 55.8662 37.0244 56.5226 34.9992 56.5226C32.9738 56.5226 32.0678 55.8663 30.8138 54.9578C29.3397 53.89 27.5054 52.5613 24.062 52.5613C20.6187 52.5613 18.7841 53.89 17.3101 54.9578C16.0561 55.8662 15.1501 56.5226 13.1247 56.5226C11.0994 56.5226 10.1933 55.8663 8.93936 54.9578C7.46525 53.89 5.63076 52.5613 2.1875 52.5613C0.979316 52.5613 0 53.5406 0 54.7488C0 55.9569 0.979316 56.9363 2.1875 56.9363C4.21285 56.9363 5.11889 57.5925 6.37287 58.501C7.84697 59.5688 9.68147 60.8976 13.1247 60.8976C16.568 60.8976 18.4026 59.5688 19.8766 58.501C21.1306 57.5927 22.0366 56.9363 24.062 56.9363C26.0873 56.9363 26.9933 57.5925 28.2473 58.501C29.7214 59.5688 31.5559 60.8976 34.9992 60.8976C38.4424 60.8976 40.2771 59.5688 41.751 58.501C43.005 57.5927 43.9112 56.9363 45.9365 56.9363C47.962 56.9363 48.8682 57.5927 50.1225 58.501C51.5966 59.5686 53.4311 60.8976 56.8746 60.8976C60.318 60.8976 62.1526 59.5688 63.6266 58.501Z" fill="#8941E8"/>
<path d="M59.0625 42.6684C59.0625 55.9578 48.2893 66.7309 35 66.7309C21.7107 66.7309 10.9375 55.9578 10.9375 42.6684C10.9375 31.0391 29.3638 9.05257 33.9674 3.74091C34.5122 3.11228 35.488 3.11228 36.0326 3.74091C40.6362 9.05257 59.0625 31.0391 59.0625 42.6684Z" fill="#4EBFFF"/>
<path d="M33.9679 3.74037C33.7882 3.94763 33.5875 4.18033 33.3677 4.43681C40.2102 12.7218 53.4288 30.0017 53.4288 39.8515C53.4288 53.1408 42.6556 63.914 29.3663 63.914C26.6215 63.914 23.9842 63.4543 21.5269 62.608C25.3711 65.2108 30.0081 66.7309 35.0001 66.7309C48.2894 66.7309 59.0626 55.9578 59.0626 42.6684C59.0626 31.0391 40.6363 9.05257 36.0327 3.74091C35.4879 3.11228 34.5128 3.11173 33.9679 3.74037Z" fill="#4EBFFF"/>
<path d="M21.0788 28.9455C18.516 31.5083 18.516 35.6635 21.0788 38.2263C23.6416 40.7891 27.7968 40.7891 30.3596 38.2263C32.9224 35.6635 32.9224 31.5083 30.3596 28.9455C27.7968 26.3827 23.6416 26.3827 21.0788 28.9455ZM27.2659 35.1327C26.4117 35.987 25.0266 35.987 24.1724 35.1327C23.3181 34.2785 23.3181 32.8934 24.1724 32.0392C25.0266 31.185 26.4117 31.185 27.2659 32.0392C28.1201 32.8934 28.1203 34.2785 27.2659 35.1327Z" fill="white"/>
<path d="M39.6404 47.5072C37.0776 50.07 37.0776 54.2251 39.6404 56.7879C42.2031 59.3507 46.3583 59.3507 48.9211 56.7879C51.4839 54.2251 51.4839 50.07 48.9211 47.5072C46.3583 44.9444 42.2031 44.9444 39.6404 47.5072ZM45.8276 53.6944C44.9733 54.5486 43.5882 54.5486 42.734 53.6944C41.8798 52.8402 41.8798 51.4551 42.734 50.6009C43.5882 49.7466 44.9733 49.7466 45.8276 50.6009C46.6818 51.4551 46.6818 52.84 45.8276 53.6944Z" fill="white"/>
<path d="M44.313 58.7099C45.9818 58.7017 47.648 58.0612 48.9211 56.788C50.5128 55.1964 51.1157 52.9907 50.7304 50.9335C49.1582 53.9584 46.9622 56.6073 44.313 58.7099Z" fill="white"/>
<path d="M45.8276 35.1328L27.2659 53.6944C26.4117 54.5486 25.0266 54.5486 24.1724 53.6944C23.3182 52.8402 23.3182 51.4551 24.1724 50.6008L42.734 32.0392C43.5882 31.185 44.9733 31.185 45.8276 32.0392C46.6818 32.8934 46.6818 34.2785 45.8276 35.1328Z" fill="white"/>
</g>
<defs>
<clipPath id="clip0_81_993">
<rect width="70" height="70" fill="white"/>
</clipPath>
</defs>
</svg>
