<svg width="382" height="237" viewBox="0 0 382 237" fill="none" xmlns="http://www.w3.org/2000/svg">
<path d="M381.559 236.488C381.721 235.59 381.814 234.668 381.814 233.722V233.406C381.814 224.782 374.823 217.79 366.198 217.79H15.616C6.991 217.79 0 224.781 0 233.406V233.722C0 234.667 0.0930011 235.589 0.255001 236.488H381.559Z" fill="#31A373"/>
<path opacity="0.55" d="M132.176 234.69C153.567 234.69 170.907 232.887 170.907 230.664C170.907 228.44 153.567 226.638 132.176 226.638C110.786 226.638 93.4451 228.44 93.4451 230.664C93.4451 232.887 110.786 234.69 132.176 234.69Z" fill="#36B37E"/>
<path d="M80.1309 198.852C80.2779 198.042 80.4619 197.338 80.8479 196.669C78.6959 194.819 74.9479 192.126 70.3879 191.073C67.3029 190.361 66.7539 189.182 65.9939 187.551C65.3379 186.143 64.5229 184.392 62.1319 183.088C60.2829 182.08 59.1869 181.804 58.3869 181.602C57.4669 181.37 56.9059 181.228 55.0089 179.312H52.0149C52.5169 179.546 53.0199 179.904 53.5379 180.456C56.6849 183.808 55.9799 184.181 57.6329 184.598C58.3439 184.777 59.1489 184.98 60.6539 185.801C62.1529 186.618 62.6129 187.606 63.1949 188.856C64.0619 190.717 65.1409 193.033 69.6939 194.083C74.4699 195.185 78.3639 198.516 79.8659 199.95C79.9669 199.591 80.0629 199.228 80.1309 198.852Z" fill="#6B3B02"/>
<path d="M82.74 218.199H76.988C76.988 218.199 73.092 207.508 72.18 203.86C71.268 200.212 67.454 202.782 69.693 197.145C71.931 191.508 77.103 184.985 83.819 182.149C88.83 180.033 89.518 177.627 90.75 174.929H94.512C94.512 174.929 94.158 179.241 87.382 183.567C84.509 185.401 80.17 187.201 78.014 189.949C74.89 193.929 73.238 197.876 73.04 198.471C72.211 200.958 74.719 199.383 76.066 204.689C76.704 207.202 78.85 209.323 79.727 210.609C80.75 212.108 82.74 218.199 82.74 218.199Z" fill="#6B3B02"/>
<path d="M72.6591 177.591C72.0251 178.98 71.6711 180.218 69.0921 181.307C66.6941 182.32 64.6811 184.246 63.2871 186.299C63.3171 186.323 63.3471 186.346 63.3751 186.371C63.7881 186.74 64.7561 188.154 65.1031 188.61C65.4991 187.92 66.0071 187.129 66.6321 186.333C67.7421 184.919 69.1581 183.536 70.6371 182.591C74.1241 180.364 74.0771 177.313 74.0771 177.313L72.6591 177.591Z" fill="#6B3B02"/>
<path d="M96.3 169.746C96.3 169.746 100.426 184.873 92.218 186.894L95.078 188.312C95.078 188.312 103.451 182.639 97.876 168.894L96.3 169.746Z" fill="#6B3B02"/>
<path d="M77.103 218.199H83.01C83.01 218.199 77.414 199.132 86.43 191.726C87.679 190.7 89.246 189.391 91.332 189.251C96.662 188.893 102.449 189.306 107.259 188.69C110.016 188.337 112.449 187.681 114.3 186.656C117.518 184.872 118.886 180.935 118.554 175.919L116.855 176.126C116.855 176.126 117.062 182.302 113.914 184.21C112.309 185.183 109.549 186.18 104.585 186.413C94.263 186.899 88.391 184.416 82.794 189.798C79.151 193.299 77.103 205.032 77.103 218.199Z" fill="#6B3B02"/>
<path d="M106.048 183.445L102.034 183.546C102.034 183.546 106.041 191.584 100.024 196.088C99.1901 196.712 96.2511 197.629 94.8351 197.747C91.2181 198.048 89.1731 197.784 85.9131 198.228C84.0441 198.483 82.401 198.909 81.158 199.543C78.997 200.646 78.126 202.982 78.426 205.923L79.8101 207.898C79.8101 207.898 79.578 204.274 81.689 203.1C82.765 202.501 84.626 201.868 87.996 201.646C95.003 201.184 98.799 200.416 102.523 197.159C104.947 195.039 106.243 191.178 106.048 183.445Z" fill="#6B3B02"/>
<path d="M86.675 166.924C86.575 166.448 86.45 166.034 86.188 165.641C87.651 164.554 90.198 162.971 93.298 162.353C95.395 161.935 95.769 161.242 96.285 160.284C96.731 159.457 97.285 158.428 98.911 157.662C100.168 157.07 100.913 156.907 101.457 156.789C102.082 156.653 102.464 156.569 103.753 155.443H105.788C105.447 155.58 105.105 155.791 104.752 156.115C102.613 158.084 103.092 158.304 101.969 158.548C101.486 158.653 100.938 158.772 99.915 159.255C98.896 159.735 98.584 160.316 98.188 161.05C97.599 162.143 96.865 163.504 93.769 164.122C90.523 164.77 87.875 166.727 86.854 167.569C86.787 167.358 86.722 167.144 86.675 166.924Z" fill="#6B3B02"/>
<path d="M84.9009 175.224H88.8109C88.8109 175.224 91.4599 172.009 92.0799 169.866C92.6999 167.723 95.2919 169.233 93.7709 165.92C92.2489 162.608 88.7339 158.776 84.1679 157.109C80.7609 155.866 80.2939 154.452 79.4559 152.867H76.8989C76.8989 152.867 77.1399 155.401 81.7459 157.943C83.6989 159.02 86.6479 160.078 88.1139 161.693C90.2379 164.031 91.3599 166.35 91.4959 166.701C92.0589 168.162 90.3549 167.237 89.4389 170.354C89.0049 171.83 87.5469 173.077 86.9509 173.832C86.2539 174.712 84.9009 175.224 84.9009 175.224Z" fill="#6B3B02"/>
<path d="M91.754 154.431C92.185 155.247 92.426 155.975 94.179 156.614C95.809 157.209 97.178 158.341 98.126 159.547C98.106 159.561 98.085 159.575 98.066 159.59C97.785 159.807 97.127 160.638 96.892 160.906C96.623 160.501 96.277 160.036 95.853 159.568C95.098 158.737 94.136 157.924 93.131 157.37C90.76 156.061 90.792 154.269 90.792 154.269L91.754 154.431Z" fill="#6B3B02"/>
<path d="M88.734 175.224H84.718C84.718 175.224 88.522 167.088 82.393 162.737C81.544 162.134 80.478 161.365 79.06 161.283C75.437 161.073 71.503 161.315 68.233 160.953C66.359 160.746 64.704 160.361 63.446 159.758C61.258 158.71 60.328 156.396 60.554 153.449L61.709 153.571C61.709 153.571 61.568 157.2 63.708 158.321C64.799 158.893 66.675 159.478 70.05 159.616C77.066 159.902 81.059 158.443 84.863 161.604C87.341 163.661 88.734 167.488 88.734 175.224Z" fill="#6B3B02"/>
<path d="M110.057 174.348C110.057 176.378 105.13 178.023 99.0519 178.023C92.9739 178.023 88.0469 176.378 88.0469 174.348C88.0469 172.318 92.9739 170.673 99.0519 170.673C105.129 170.673 110.057 172.319 110.057 174.348Z" fill="#174B35"/>
<path d="M135.478 172.759C135.874 172.18 136.096 171.563 136.096 170.92C136.096 167.692 130.696 165.075 124.036 165.075C122.473 165.075 120.984 165.224 119.613 165.486C118.166 162.563 113.565 160.423 108.101 160.423C101.478 160.423 96.109 163.564 96.109 167.438C96.109 167.658 96.131 167.874 96.165 168.089C94.369 167.575 92.282 167.274 90.045 167.274C85.407 167.274 81.386 168.545 79.369 170.405C77.674 168.827 74.943 167.67 71.726 167.269C72.063 166.622 72.247 165.935 72.247 165.223C72.247 161.502 67.291 158.466 61.032 158.231C61.068 158.221 61.107 158.214 61.143 158.204C63.1 157.639 64.736 156.832 65.886 155.868C67.839 156.427 70.102 156.752 72.524 156.752C77.333 156.752 81.53 155.486 83.849 153.599C84.154 153.756 84.479 153.906 84.824 154.049C87.237 155.046 90.583 155.666 94.29 155.666C94.687 155.666 95.079 155.659 95.467 155.645C98.181 155.548 100.659 155.117 102.66 154.456C102.765 155.76 103.646 156.967 105.083 157.965C107.478 159.629 111.416 160.715 115.875 160.715C123.188 160.715 129.116 157.797 129.116 154.197C129.116 154.143 129.104 154.091 129.102 154.037C129.095 153.894 129.089 153.752 129.063 153.612C129.046 153.521 129.014 153.431 128.99 153.341C128.963 153.241 128.944 153.14 128.908 153.041C128.87 152.938 128.817 152.838 128.769 152.736C128.73 152.653 128.699 152.569 128.654 152.487C128.591 152.373 128.512 152.263 128.438 152.151C128.394 152.085 128.357 152.018 128.309 151.953C128.219 151.832 128.114 151.716 128.01 151.598C127.964 151.546 127.925 151.492 127.876 151.441C127.754 151.313 127.618 151.189 127.48 151.065C127.439 151.028 127.403 150.99 127.361 150.954C127.206 150.822 127.038 150.694 126.865 150.568C126.831 150.543 126.801 150.517 126.767 150.492C126.577 150.357 126.375 150.228 126.166 150.101C126.143 150.087 126.123 150.073 126.1 150.059C125.877 149.926 125.643 149.798 125.4 149.675C125.387 149.668 125.376 149.661 125.363 149.655C123.503 148.715 121.074 148.049 118.346 147.795C120.171 146.678 121.269 145.261 121.269 143.715C121.269 140.115 115.341 137.197 108.028 137.197C106.614 137.197 105.254 137.308 103.976 137.511C101.548 136.041 97.849 135.101 93.701 135.101C93.318 135.101 92.942 135.113 92.567 135.129C92.71 134.745 92.795 134.351 92.795 133.947C92.795 130.347 86.867 127.429 79.554 127.429C72.241 127.429 66.312 130.347 66.312 133.947C66.312 134.461 66.445 134.957 66.673 135.437C66.508 135.41 66.33 135.399 66.163 135.375C66.161 135.375 66.159 135.375 66.157 135.374C65.585 135.292 65.004 135.223 64.403 135.179C63.782 135.13 63.148 135.101 62.498 135.101C55.185 135.101 49.256 138.019 49.256 141.619C49.256 143.36 50.651 144.937 52.91 146.106C46.335 146.487 41.232 149.236 41.232 152.574C41.232 156.17 47.149 159.085 54.451 159.091C51.216 160.144 48.897 162.044 48.384 164.283C46.551 163.619 44.397 163.228 42.082 163.228C35.459 163.228 30.09 166.369 30.09 170.243C30.09 171.221 30.434 172.152 31.053 172.998C28.551 173.202 26.31 173.778 24.582 174.605C24.577 174.607 24.572 174.61 24.567 174.612C24.327 174.727 24.096 174.847 23.877 174.972C23.871 174.976 23.865 174.98 23.859 174.983C23.642 175.107 23.435 175.235 23.239 175.367C23.217 175.382 23.198 175.398 23.176 175.414C23 175.536 22.829 175.66 22.672 175.789C22.636 175.818 22.607 175.85 22.572 175.879C22.435 175.996 22.3 176.113 22.18 176.234C22.135 176.28 22.099 176.328 22.056 176.374C21.956 176.482 21.854 176.59 21.767 176.702C21.72 176.763 21.684 176.827 21.641 176.889C21.571 176.989 21.497 177.088 21.438 177.19C21.398 177.26 21.371 177.333 21.336 177.404C21.288 177.501 21.235 177.597 21.197 177.697C21.161 177.792 21.141 177.891 21.115 177.988C21.094 178.065 21.065 178.141 21.05 178.219C21.017 178.395 21 178.574 21 178.755C21 181.983 26.399 184.6 33.06 184.6C33.746 184.6 34.414 184.566 35.069 184.512C34.95 184.841 34.877 185.177 34.877 185.522C34.877 188.75 40.277 191.367 46.937 191.367C53.598 191.367 58.997 188.75 58.997 185.522C58.997 183.776 57.409 182.213 54.904 181.142C57.481 180.952 59.793 180.372 61.561 179.522C63.484 180.456 65.918 181.038 68.578 181.12C68.404 181.515 68.308 181.924 68.308 182.344C68.308 185.572 73.708 188.19 80.368 188.19C83.93 188.19 87.122 187.437 89.329 186.247C89.436 186.294 89.54 186.343 89.651 186.389C89.426 186.835 89.294 187.299 89.294 187.779C89.294 191.007 94.694 193.624 101.355 193.624C108.008 193.624 113.402 191.013 113.414 187.789C114.388 187.912 115.405 187.984 116.458 187.984C116.849 187.984 117.235 187.975 117.616 187.957C117.751 187.951 117.881 187.938 118.015 187.929C118.258 187.914 118.503 187.901 118.742 187.878C118.918 187.862 119.087 187.838 119.26 187.818C119.45 187.796 119.643 187.778 119.83 187.751C120.041 187.721 120.244 187.684 120.449 187.649C120.59 187.625 120.735 187.605 120.874 187.578C121.107 187.533 121.331 187.481 121.557 187.43C121.662 187.406 121.77 187.386 121.873 187.361C122.12 187.301 122.358 187.233 122.594 187.165C122.668 187.144 122.746 187.125 122.819 187.103C123.081 187.024 123.332 186.938 123.58 186.85C123.622 186.835 123.667 186.822 123.709 186.807C123.977 186.709 124.233 186.605 124.483 186.497C124.501 186.489 124.52 186.482 124.538 186.475C124.802 186.359 125.056 186.237 125.298 186.11L125.302 186.108C127.055 185.19 128.21 184 128.461 182.683C145.992 187.65 144.123 173.733 135.478 172.759Z" fill="#31A373"/>
<path d="M288.951 200.001C289.089 199.239 289.262 198.577 289.625 197.947C287.601 196.207 284.076 193.674 279.786 192.684C276.884 192.014 276.368 190.906 275.653 189.371C275.036 188.047 274.269 186.4 272.02 185.173C270.281 184.224 269.25 183.965 268.497 183.775C267.632 183.557 267.104 183.423 265.319 181.621H262.503C262.975 181.841 263.449 182.178 263.936 182.697C266.896 185.85 266.233 186.201 267.787 186.593C268.455 186.761 269.213 186.952 270.628 187.724C272.038 188.493 272.47 189.422 273.018 190.598C273.834 192.348 274.848 194.526 279.132 195.515C283.624 196.552 287.287 199.685 288.7 201.034C288.797 200.696 288.887 200.354 288.951 200.001Z" fill="#6B3B02"/>
<path d="M295.853 182.285C295.026 182.981 293.935 183.649 292.42 184.289C286.102 186.957 281.238 193.092 279.132 198.395C277.027 203.698 280.614 201.28 281.471 204.711C282.329 208.142 285.994 218.199 285.994 218.199H291.404C291.404 218.199 289.532 212.47 288.57 211.059C287.745 209.85 285.727 207.854 285.127 205.491C283.86 200.5 281.501 201.982 282.281 199.643C282.468 199.083 284.021 195.37 286.96 191.627C288.988 189.043 293.07 187.349 295.772 185.624C297.416 184.574 298.653 183.527 299.591 182.548C298.337 182.494 297.088 182.403 295.853 182.285Z" fill="#6B3B02"/>
<path d="M281.923 180.002C281.326 181.308 280.993 182.473 278.567 183.498C276.311 184.451 274.418 186.262 273.106 188.194C273.134 188.216 273.162 188.238 273.189 188.262C273.577 188.609 274.488 189.939 274.814 190.368C275.186 189.719 275.665 188.975 276.252 188.226C277.296 186.896 278.628 185.595 280.019 184.707C283.299 182.612 283.255 179.742 283.255 179.742L281.923 180.002Z" fill="#6B3B02"/>
<path d="M304.16 172.623C304.16 172.623 308.041 186.852 300.321 188.752L303.011 190.086C303.011 190.086 310.887 184.75 305.643 171.821L304.16 172.623Z" fill="#6B3B02"/>
<path d="M286.103 218.199H291.659C291.659 218.199 286.395 200.264 294.876 193.299C296.051 192.334 297.525 191.103 299.487 190.971C304.5 190.634 309.944 191.023 314.468 190.443C317.061 190.111 319.35 189.494 321.091 188.53C324.118 186.852 325.405 183.148 325.093 178.43L323.495 178.625C323.495 178.625 323.69 184.434 320.729 186.229C319.219 187.144 316.624 188.082 311.954 188.302C302.245 188.76 296.722 186.424 291.457 191.486C288.03 194.778 286.103 205.814 286.103 218.199Z" fill="#6B3B02"/>
<path d="M313.329 185.509L309.553 185.604C309.553 185.604 313.323 193.165 307.662 197.401C306.878 197.988 304.113 198.85 302.781 198.961C299.379 199.245 297.455 198.996 294.389 199.413C292.631 199.652 291.085 200.054 289.916 200.65C287.884 201.687 287.064 203.885 287.346 206.651L288.648 208.509C288.648 208.509 288.43 205.1 290.416 203.996C291.428 203.433 293.179 202.837 296.349 202.629C302.94 202.194 306.51 201.472 310.013 198.409C312.293 196.414 313.512 192.783 313.329 185.509Z" fill="#6B3B02"/>
<path d="M306.748 180.409C312.465 180.409 317.1 178.861 317.1 176.952C317.1 175.043 312.465 173.495 306.748 173.495C301.031 173.495 296.396 175.043 296.396 176.952C296.396 178.861 301.031 180.409 306.748 180.409Z" fill="#174B35"/>
<path d="M341.012 175.457C341.384 174.913 341.593 174.332 341.593 173.727C341.593 170.69 336.514 168.229 330.249 168.229C328.779 168.229 327.378 168.369 326.088 168.616C324.727 165.866 320.399 163.854 315.26 163.854C309.03 163.854 303.98 166.808 303.98 170.452C303.98 170.659 304.001 170.862 304.033 171.064C302.344 170.58 300.38 170.297 298.276 170.297C293.913 170.297 290.131 171.492 288.233 173.242C286.639 171.758 284.07 170.669 281.044 170.292C281.361 169.683 281.535 169.038 281.535 168.368C281.535 166.438 279.851 164.25 277.353 162.639C273.237 159.985 267.885 159.834 263.63 162.26C261.758 163.327 259.98 164.968 259.088 167.486C257.364 166.861 255.338 166.494 253.16 166.494C246.93 166.494 241.88 169.448 241.88 173.093C241.88 174.013 242.204 174.889 242.786 175.684C240.432 175.876 238.325 176.418 236.699 177.196C236.694 177.198 236.69 177.201 236.685 177.203C236.459 177.311 236.242 177.424 236.036 177.541C236.03 177.544 236.025 177.548 236.019 177.551C235.815 177.668 235.62 177.788 235.436 177.912C235.415 177.926 235.398 177.941 235.377 177.956C235.211 178.071 235.05 178.188 234.903 178.309C234.869 178.337 234.842 178.366 234.809 178.394C234.68 178.504 234.553 178.614 234.44 178.728C234.397 178.771 234.364 178.816 234.324 178.86C234.23 178.962 234.134 179.063 234.052 179.169C234.007 179.227 233.974 179.287 233.933 179.345C233.868 179.439 233.798 179.532 233.742 179.628C233.704 179.694 233.679 179.762 233.647 179.829C233.602 179.921 233.552 180.011 233.516 180.104C233.482 180.194 233.464 180.286 233.439 180.377C233.419 180.45 233.391 180.521 233.378 180.595C233.347 180.761 233.331 180.929 233.331 181.099C233.331 184.136 238.41 186.597 244.675 186.597C245.32 186.597 245.949 186.565 246.565 186.514C246.453 186.823 246.384 187.139 246.384 187.464C246.384 190.501 251.463 192.962 257.728 192.962C263.993 192.962 269.072 190.5 269.072 187.464C269.072 185.821 267.578 184.351 265.222 183.344C267.646 183.165 269.82 182.62 271.484 181.821C273.293 182.7 275.582 183.247 278.084 183.324C277.92 183.695 277.83 184.08 277.83 184.475C277.83 187.512 282.909 189.974 289.174 189.974C292.525 189.974 295.526 189.266 297.603 188.146C297.704 188.191 297.802 188.237 297.906 188.279C297.694 188.699 297.57 189.135 297.57 189.586C297.57 192.623 302.649 195.084 308.914 195.084C315.172 195.084 320.246 192.628 320.257 189.596C321.173 189.712 322.129 189.78 323.121 189.78C323.488 189.78 323.852 189.771 324.21 189.755C324.337 189.749 324.46 189.737 324.585 189.729C324.814 189.715 325.045 189.702 325.269 189.681C325.434 189.666 325.594 189.643 325.756 189.624C325.935 189.603 326.116 189.586 326.292 189.561C326.49 189.533 326.681 189.498 326.874 189.465C327.007 189.442 327.144 189.423 327.274 189.398C327.493 189.356 327.704 189.307 327.916 189.259C328.014 189.237 328.117 189.218 328.213 189.194C328.445 189.137 328.669 189.074 328.892 189.009C328.962 188.989 329.035 188.971 329.104 188.951C329.35 188.877 329.586 188.796 329.82 188.713C329.859 188.699 329.902 188.687 329.941 188.672C330.193 188.58 330.434 188.482 330.669 188.38C330.686 188.373 330.704 188.366 330.721 188.359C330.97 188.25 331.208 188.135 331.436 188.016L331.44 188.014C333.088 187.15 334.175 186.031 334.412 184.792C350.901 189.464 349.143 176.373 341.012 175.457Z" fill="#31A373"/>
<mask id="mask0_81_2283" style="mask-type:luminance" maskUnits="userSpaceOnUse" x="67" y="65" width="255" height="155">
<path d="M321.622 124.498L255.143 69.8808L255.162 69.8658L254.538 69.3839L249.421 65.1808L249.261 65.0479L249.102 65.1808L243.985 69.3839L243.361 69.8658L243.379 69.8808L208.81 98.2818H95.6139L67.9399 140.935H75.5819V146.935V219.387H87.2009H89.7489H173.773H176.321H187.019V219.211H217.573H280.421H314.149V212.965V210.461V138.416V128.022L315.562 129.184L321.622 124.498Z" fill="white"/>
</mask>
<g mask="url(#mask0_81_2283)">
<path d="M187.02 131.984H75.582V219.387H187.02V131.984Z" fill="#BABDC1"/>
<path opacity="0.32" d="M187.02 136.195H75.582V146.935H187.02V136.195Z" fill="#003768"/>
<path d="M194.661 140.935H67.9399L95.6139 98.2819H210.305L194.661 140.935Z" fill="#6A7178"/>
<path d="M176.321 158.765H87.2009V219.387H176.321V158.765Z" fill="white"/>
<path d="M173.774 158.765H89.7488V219.387H173.774V158.765Z" fill="#212B36"/>
<path d="M177.015 156.897H86.5059V160.123H177.015V156.897Z" fill="#4D555E"/>
<path d="M173.774 160.124H89.7488V191.895H173.774V160.124Z" fill="#BABDC1"/>
<path d="M173.774 165.206H89.7488V167.747H173.774V165.206Z" fill="#999DA3"/>
<path d="M173.774 171.917H89.7488V174.458H173.774V171.917Z" fill="#999DA3"/>
<path d="M173.774 178.628H89.7488V181.17H173.774V178.628Z" fill="#999DA3"/>
<path d="M173.774 185.339H89.7488V187.881H173.774V185.339Z" fill="#999DA3"/>
<path opacity="0.55" d="M95.5268 218.722C95.3528 218.943 95.1798 219.165 95.0068 219.387H187.02V141.032H157.521C146.099 156.445 98.3808 215.089 95.5268 218.722Z" fill="#999DA3"/>
<path d="M183.845 212.965H314.149V120.419L248.997 65.4808L183.845 120.419V212.965Z" fill="white"/>
<path d="M314.148 210.461H183.845V219.211H314.148V210.461Z" fill="#212B36"/>
<path d="M248.997 65.4808L314.149 120.419V138.416L248.997 85.7628L183.845 138.416V120.419L248.997 65.4808Z" fill="#BABDC1"/>
<path d="M304.832 137.286H271.45V177.823H304.832V137.286Z" fill="#BABDC1"/>
<path d="M302.168 140.521H274.114V174.589H302.168V140.521Z" fill="#4EBFFF"/>
<path d="M289.369 140.521H287.007V174.589H289.369V140.521Z" fill="#DBE0E4"/>
<path d="M302.168 156.479H274.114V159.468H302.168V156.479Z" fill="#DBE0E4"/>
<path d="M261.598 130.891V117.481C261.598 110.626 256.041 105.069 249.186 105.069H248.935C242.08 105.069 236.523 110.626 236.523 117.481V130.891H261.598Z" fill="#BABDC1"/>
<path d="M259.597 128.837V117.616C259.597 111.855 254.927 107.185 249.166 107.185H248.955C243.194 107.185 238.524 111.855 238.524 117.616V128.837H259.597Z" fill="#4EBFFF"/>
<path d="M249.983 107.184H248.209V128.836H249.983V107.184Z" fill="#DBE0E4"/>
<path d="M259.598 119.171H238.525V121.416H259.598V119.171Z" fill="#DBE0E4"/>
<path d="M223.534 137.286H190.152V177.823H223.534V137.286Z" fill="#BABDC1"/>
<path d="M220.87 140.521H192.816V174.589H220.87V140.521Z" fill="#4EBFFF"/>
<path d="M208.072 140.521H205.71V174.589H208.072V140.521Z" fill="#DBE0E4"/>
<path d="M220.87 156.479H192.816V159.468H220.87V156.479Z" fill="#DBE0E4"/>
<path d="M176.901 124.498L243.379 69.8808L243.361 69.8658L243.985 69.3839L249.102 65.1808L249.261 65.0479L249.421 65.1808L254.538 69.3839L255.162 69.8658L255.143 69.8808L321.622 124.498L315.562 129.183L249.261 74.7139L182.961 129.183L176.901 124.498Z" fill="#212B36"/>
<path d="M263.241 151.2H234.88V204.044H263.241V151.2Z" fill="#6A7178"/>
<path d="M260.583 154.099H237.539V204.044H260.583V154.099Z" fill="#212B36"/>
<path d="M239.438 174.473C239.438 175.226 240.048 175.836 240.801 175.836C241.554 175.836 242.163 175.226 242.163 174.473C242.163 173.721 241.553 173.111 240.801 173.111C240.048 173.111 239.438 173.721 239.438 174.473Z" fill="#6A7178"/>
<path d="M269.79 202.633H228.204V206.777H269.79V202.633Z" fill="#6A7178"/>
<path d="M273.005 206.778H224.989V210.922H273.005V206.778Z" fill="#4D555E"/>
<path d="M276.601 210.922H221.393V215.066H276.601V210.922Z" fill="#6A7178"/>
<path d="M280.421 215.066H217.573V219.21H280.421V215.066Z" fill="#4D555E"/>
</g>
<mask id="mask1_81_2283" style="mask-type:luminance" maskUnits="userSpaceOnUse" x="67" y="65" width="255" height="155">
<path d="M321.622 124.498L255.143 69.8808L255.162 69.8658L254.538 69.3839L249.421 65.1808L249.261 65.0479L249.102 65.1808L243.985 69.3839L243.361 69.8658L243.379 69.8808L208.81 98.2818H95.6139L67.9399 140.935H75.5819V146.935V219.387H87.2009H89.7489H173.773H176.321H187.019V219.211H217.573H280.421H314.149V212.965V210.461V138.416V128.022L315.562 129.184L321.622 124.498Z" fill="white"/>
</mask>
<g mask="url(#mask1_81_2283)">
<path d="M295.66 76.9549C308.957 88.1979 313.433 104.205 305.657 112.708C297.881 121.211 280.799 118.99 267.503 107.748C254.206 96.5059 249.73 80.4979 257.506 71.9949C265.281 63.4919 282.363 65.7129 295.66 76.9549Z" fill="#212B36"/>
<path d="M294.901 85.8289C298.801 92.8239 296.083 101.567 288.831 105.357C281.579 109.147 272.539 106.549 268.639 99.5539C264.739 92.5589 267.457 83.8159 274.709 80.0259C281.961 76.2359 291.002 78.8329 294.901 85.8289Z" fill="#0E1217"/>
</g>
<path d="M119.819 198.191C120.248 198.321 120.4 201.297 120.4 201.297L123.509 202.489L123.145 203.691C120.563 202.896 115.375 201.264 114.814 200.807C114.063 200.195 113.15 198.958 113.243 198.65C113.423 198.056 119.39 198.061 119.819 198.191Z" fill="white"/>
<path d="M171.645 198.088C171.25 198.22 171.881 201.195 171.881 201.195L169.087 202.399L169.767 203.599C172.139 202.795 176.894 201.143 177.336 200.684C177.926 200.07 178.513 198.83 178.339 198.522C178.003 197.929 172.04 197.957 171.645 198.088Z" fill="white"/>
<path d="M124.597 230.663L119.717 230.664C118.129 230.608 116.658 228.384 116.729 226.372L116.967 219.648L127.162 220.398L127.585 224.862C127.615 225.328 127.579 227.634 127.464 228.086C127.075 229.616 125.92 230.709 124.597 230.663Z" fill="#6B3B02"/>
<path d="M168.965 230.663L173.845 230.664C175.433 230.608 176.904 228.384 176.833 226.372L176.595 219.648L166.399 220.398L165.976 224.862C165.946 225.328 165.982 227.634 166.097 228.086C166.486 229.616 167.641 230.709 168.965 230.663Z" fill="#6B3B02"/>
<path d="M173.671 202.063C172.913 201.531 172.265 200.884 171.743 200.159L165.765 191.856C164.171 189.641 161.431 188.304 158.491 188.304H146.78H135.069C132.128 188.304 129.389 189.642 127.794 191.856L121.817 200.159C121.295 200.884 120.647 201.531 119.89 202.063C117.993 203.394 114.201 206.503 114.201 210.086C114.201 214.864 114.716 225.051 116.435 225.641C119.553 226.71 136.264 227.393 143.469 227.643C145.677 227.72 147.883 227.72 150.09 227.643C157.296 227.394 174.006 226.71 177.124 225.641C178.843 225.052 179.358 214.864 179.358 210.086C179.36 206.503 175.567 203.394 173.671 202.063Z" fill="white"/>
<path d="M176.931 204.895C176.68 209.825 176.11 212.52 175.015 212.923C172.113 213.991 156.565 217.429 149.861 217.678C147.807 217.754 145.754 217.754 143.7 217.678C136.995 217.429 121.447 213.991 118.546 212.923C117.451 212.52 116.881 209.825 116.63 204.895C115.311 206.349 114.201 208.148 114.201 210.086C114.201 214.864 114.716 225.051 116.435 225.641C119.553 226.71 136.264 227.393 143.469 227.643C145.677 227.72 147.883 227.72 150.09 227.643C157.296 227.394 174.006 226.71 177.124 225.641C178.843 225.052 179.358 214.864 179.358 210.086C179.36 208.149 178.25 206.35 176.931 204.895Z" fill="white"/>
<path d="M171.209 208.562C171.026 208.322 170.832 208.091 170.632 207.871C170.617 208.16 170.601 208.436 170.583 208.705C170.803 208.656 171.012 208.608 171.209 208.562Z" fill="#4D555E"/>
<path d="M149.835 219.541C147.799 219.601 145.763 219.601 143.727 219.541C138.632 219.39 129.192 219.037 123.503 218.499C122.645 218.418 121.825 218.96 121.616 219.796C121.111 221.808 122.209 223.843 122.777 224.038C125.244 224.883 138.463 225.424 144.163 225.622C145.909 225.682 147.655 225.682 149.401 225.622C155.101 225.425 168.32 224.884 170.787 224.038C171.358 223.843 172.449 221.946 171.966 219.853C171.767 218.994 170.945 218.422 170.067 218.504C164.361 219.039 154.912 219.39 149.835 219.541Z" fill="#212B36"/>
<path d="M149.701 220.778C147.754 220.82 145.808 220.82 143.861 220.778C138.907 220.671 129.657 219.933 124.25 219.548C123.575 219.5 122.909 219.878 122.705 220.516C122.26 221.903 123.293 223.292 123.83 223.426C126.189 224.015 138.827 224.392 144.277 224.529C145.947 224.571 147.615 224.571 149.285 224.529C154.735 224.392 167.374 224.015 169.732 223.426C170.269 223.292 171.291 222.007 170.878 220.574C170.687 219.91 170.007 219.503 169.311 219.552C163.89 219.935 154.636 220.671 149.701 220.778Z" fill="#BABDC1"/>
<path d="M122.979 208.705C122.961 208.436 122.945 208.16 122.93 207.871C122.73 208.092 122.536 208.323 122.353 208.562C122.55 208.608 122.759 208.656 122.979 208.705Z" fill="#4D555E"/>
<path d="M161.65 192.324C160.438 190.87 158.644 190.029 156.751 190.029H146.78H136.809C134.917 190.029 133.122 190.87 131.91 192.324L125.427 200.103C125.33 200.219 125.403 200.395 125.554 200.407C127.579 200.563 137.867 201.32 146.78 201.32C155.693 201.32 165.981 200.563 168.006 200.407C168.156 200.395 168.229 200.219 168.132 200.103L161.65 192.324Z" fill="#212B36"/>
<path d="M127.681 214.665C127.681 214.665 124.902 205.198 122.113 205.063C120.201 204.97 118.802 206.244 118.112 207.055C117.784 207.439 117.622 207.942 117.649 208.453C117.717 209.75 117.996 212.314 119.144 212.784C120.692 213.417 127.681 214.665 127.681 214.665Z" fill="#22AFFF"/>
<path d="M164.669 215.429C164.669 215.429 167.991 204.456 171.325 204.299C173.611 204.191 175.282 205.668 176.108 206.607C176.499 207.053 176.59 207.638 176.661 208.227C176.733 208.826 176.344 212.128 174.874 213.246C173.289 214.454 164.669 215.429 164.669 215.429Z" fill="#6A7178"/>
<path d="M165.806 214.665C165.806 214.665 168.585 205.198 171.375 205.063C173.287 204.97 174.686 206.244 175.376 207.055C175.704 207.439 175.866 207.942 175.839 208.453C175.771 209.75 175.493 212.314 174.344 212.784C172.794 213.417 165.806 214.665 165.806 214.665Z" fill="#E9EAEB"/>
<path d="M165.806 214.665C165.806 214.665 168.585 205.198 171.375 205.063C173.287 204.97 174.686 206.244 175.376 207.055C175.704 207.439 175.866 207.942 175.839 208.453C175.771 209.75 175.493 212.314 174.344 212.784C172.794 213.417 165.806 214.665 165.806 214.665Z" fill="#BABDC1"/>
<path d="M128.818 215.429C128.818 215.429 125.496 204.456 122.162 204.299C119.876 204.191 118.204 205.668 117.379 206.607C116.987 207.053 116.794 207.635 116.826 208.227C116.907 209.73 117.24 212.702 118.613 213.246C120.464 213.982 128.818 215.429 128.818 215.429Z" fill="#6A7178"/>
<path d="M127.681 214.665C127.681 214.665 124.902 205.198 122.113 205.063C120.201 204.97 118.802 206.244 118.112 207.055C117.784 207.439 117.622 207.942 117.649 208.453C117.717 209.75 117.996 212.314 119.144 212.784C120.692 213.417 127.681 214.665 127.681 214.665Z" fill="#BABDC1"/>
<path d="M146.781 204.293C146.781 204.293 129.138 203.75 126.197 203.162C126.197 203.162 129.725 213.276 130.901 213.982C132.077 214.688 140.431 216.334 146.78 216.334C153.129 216.334 161.483 214.688 162.659 213.982C163.835 213.276 167.363 203.162 167.363 203.162C164.424 203.75 146.781 204.293 146.781 204.293Z" fill="white"/>
<path d="M226.425 119.506H224.925V57.974L239.37 44.429L240.396 45.5229L226.425 58.623V119.506Z" fill="#4EBFFF"/>
<path d="M221.445 119.267C221.445 121.603 223.339 123.497 225.675 123.497C228.011 123.497 229.905 121.603 229.905 119.267C229.905 116.931 228.011 115.037 225.675 115.037C223.339 115.038 221.445 116.932 221.445 119.267Z" fill="white"/>
<path d="M220.883 119.267C220.883 116.625 223.033 114.475 225.675 114.475C228.317 114.475 230.467 116.625 230.467 119.267C230.467 121.909 228.317 124.059 225.675 124.059C223.033 124.059 220.883 121.91 220.883 119.267C220.883 121.91 220.883 116.625 220.883 119.267ZM229.342 119.267C229.342 117.244 227.697 115.6 225.675 115.6C223.653 115.6 222.008 117.245 222.008 119.267C222.008 121.289 223.653 122.934 225.675 122.934C227.697 122.934 229.342 121.29 229.342 119.267C229.342 121.29 229.342 117.244 229.342 119.267Z" fill="#4EBFFF"/>
<path d="M169.49 130.259H167.99V69.3759L154.018 56.2759L155.045 55.1819L169.49 68.7259V130.259Z" fill="#4EBFFF"/>
<path d="M164.51 130.02C164.51 132.356 166.404 134.25 168.74 134.25C171.076 134.25 172.97 132.356 172.97 130.02C172.97 127.684 171.076 125.79 168.74 125.79C166.404 125.79 164.51 127.684 164.51 130.02Z" fill="white"/>
<path d="M163.948 130.02C163.948 127.378 166.098 125.228 168.74 125.228C171.382 125.228 173.532 127.378 173.532 130.02C173.532 132.662 171.382 134.812 168.74 134.812C166.098 134.812 163.948 132.662 163.948 130.02C163.948 132.662 163.948 127.378 163.948 130.02ZM172.407 130.02C172.407 127.997 170.762 126.353 168.74 126.353C166.718 126.353 165.073 127.998 165.073 130.02C165.073 132.042 166.718 133.687 168.74 133.687C170.762 133.687 172.407 132.043 172.407 130.02C172.407 132.043 172.407 127.997 172.407 130.02Z" fill="#4EBFFF"/>
<path d="M121.068 111.776H119.568V50.892L105.596 37.792L106.622 36.698L121.068 50.243V111.776Z" fill="#4EBFFF"/>
<path d="M116.088 111.536C116.088 113.872 117.982 115.766 120.318 115.766C122.654 115.766 124.548 113.872 124.548 111.536C124.548 109.2 122.654 107.306 120.318 107.306C117.982 107.307 116.088 109.201 116.088 111.536Z" fill="white"/>
<path d="M115.526 111.536C115.526 108.894 117.676 106.744 120.318 106.744C122.96 106.744 125.11 108.894 125.11 111.536C125.11 114.178 122.96 116.328 120.318 116.328C117.676 116.328 115.526 114.179 115.526 111.536C115.526 114.179 115.526 108.894 115.526 111.536ZM123.985 111.536C123.985 109.513 122.34 107.869 120.318 107.869C118.296 107.869 116.651 109.514 116.651 111.536C116.651 113.558 118.296 115.203 120.318 115.203C122.34 115.203 123.985 113.559 123.985 111.536C123.985 113.559 123.985 109.513 123.985 111.536Z" fill="#4EBFFF"/>
<path d="M206.667 38.4548H205.167V127.596H206.667V38.4548Z" fill="#4EBFFF"/>
<path d="M201.688 127.356C201.688 129.692 203.582 131.586 205.918 131.586C208.254 131.586 210.148 129.692 210.148 127.356C210.148 125.02 208.254 123.126 205.918 123.126C203.582 123.126 201.688 125.02 201.688 127.356Z" fill="white"/>
<path d="M201.125 127.356C201.125 124.714 203.275 122.564 205.917 122.564C208.559 122.564 210.709 124.714 210.709 127.356C210.709 129.998 208.559 132.148 205.917 132.148C203.275 132.148 201.125 129.998 201.125 127.356C201.125 129.998 201.125 124.714 201.125 127.356ZM209.585 127.356C209.585 125.333 207.94 123.689 205.918 123.689C203.896 123.689 202.251 125.334 202.251 127.356C202.251 129.379 203.896 131.023 205.918 131.023C207.94 131.023 209.585 129.379 209.585 127.356C209.585 129.379 209.585 125.333 209.585 127.356Z" fill="#4EBFFF"/>
<path d="M285.767 127.595H284.267V55.064L304.282 37.824L305.26 38.96L285.767 55.751V127.595Z" fill="#4EBFFF"/>
<path d="M285.017 131.586C287.353 131.586 289.247 129.692 289.247 127.356C289.247 125.02 287.353 123.126 285.017 123.126C282.681 123.126 280.787 125.02 280.787 127.356C280.787 129.692 282.681 131.586 285.017 131.586Z" fill="white"/>
<path d="M280.225 127.356C280.225 124.714 282.375 122.564 285.017 122.564C287.659 122.564 289.809 124.714 289.809 127.356C289.809 129.998 287.659 132.148 285.017 132.148C282.375 132.148 280.225 129.998 280.225 127.356C280.225 129.998 280.225 124.714 280.225 127.356ZM288.684 127.356C288.684 125.333 287.039 123.689 285.017 123.689C282.994 123.689 281.35 125.334 281.35 127.356C281.35 129.379 282.995 131.023 285.017 131.023C287.04 131.023 288.684 129.379 288.684 127.356C288.684 129.379 288.684 125.333 288.684 127.356Z" fill="#4EBFFF"/>
<path d="M205.517 41.21C216.897 41.21 226.122 31.9848 226.122 20.605C226.122 9.22517 216.897 0 205.517 0C194.137 0 184.912 9.22517 184.912 20.605C184.912 31.9848 194.137 41.21 205.517 41.21Z" fill="#4EBFFF"/>
<path d="M216.653 16.319C216.653 10.169 211.667 5.18298 205.517 5.18298C199.367 5.18298 194.381 10.169 194.381 16.319C194.381 16.647 194.402 16.971 194.43 17.292C194.556 22.72 198.694 24.703 199.595 26.453C200.847 28.884 200.773 30.43 200.773 30.43C201.987 31.24 203.723 31.465 205.385 31.442C205.387 31.442 205.39 31.442 205.392 31.442C205.394 31.442 205.397 31.442 205.399 31.442C207.06 31.465 208.797 31.24 210.011 30.43C210.011 30.43 209.937 28.883 211.189 26.453C211.389 26.066 211.748 25.667 212.186 25.222C214.894 23.19 216.653 19.964 216.653 16.319Z" fill="white"/>
<path d="M203.553 18.015C202.993 17.641 202.315 17.746 201.54 18.335C199.791 19.656 199.651 20.638 199.834 21.225C200.109 22.086 201.185 22.452 202.051 22.366C202.794 22.288 203.289 21.895 203.375 21.306C203.51 20.38 203.251 19.659 202.692 19.374C202.132 19.089 201.277 20.375 201.277 20.375C201.643 19.88 202.133 19.673 202.499 19.858C202.854 20.036 203.01 20.547 202.908 21.222C202.838 21.714 202.203 21.817 202.009 21.838C201.315 21.908 200.464 21.606 200.281 21.047C200.098 20.474 200.658 19.648 201.804 18.773C202.423 18.305 202.918 18.205 203.305 18.469C204.984 19.607 204.688 26.894 204.43 29.609L204.898 29.666C204.942 29.254 205.835 19.557 203.553 18.015Z" fill="#FFDBB2"/>
<path d="M209.484 18.335C208.709 17.746 208.031 17.641 207.477 18.015C205.19 19.557 206.083 29.254 206.121 29.666L206.595 29.609C206.337 26.894 206.035 19.607 207.714 18.469C208.112 18.205 208.597 18.305 209.216 18.773C210.368 19.647 210.927 20.474 210.744 21.047C210.561 21.607 209.705 21.908 209.017 21.838C208.823 21.816 208.188 21.714 208.113 21.222C208.016 20.547 208.172 20.035 208.527 19.858C208.893 19.672 209.388 19.88 209.749 20.375C209.749 20.375 208.899 19.089 208.334 19.374C207.774 19.659 207.516 20.38 207.645 21.306C207.731 21.895 208.232 22.288 208.974 22.366C209.841 22.452 210.917 22.086 211.191 21.225C211.373 20.638 211.227 19.656 209.484 18.335Z" fill="#FFDBB2"/>
<path d="M204.249 36.026H206.715C207.671 36.026 208.53 35.409 208.774 34.499C208.845 34.235 208.904 33.941 208.953 33.615C208.953 33.615 202.959 34.168 202.027 33.615C202.027 33.615 202.044 34.036 202.212 34.565C202.488 35.437 203.32 36.026 204.249 36.026Z" fill="#999DA3"/>
<path d="M205.4 29.251H200.643C200.608 30.438 200.736 31.352 200.944 32.054C201.347 33.416 202.29 34.337 203.587 34.375C204.045 34.389 204.683 34.399 205.4 34.398C206.117 34.399 206.755 34.388 207.213 34.375C208.51 34.337 209.453 33.416 209.856 32.054C210.064 31.352 210.191 30.439 210.157 29.251H205.4Z" fill="#999DA3"/>
<path d="M201.307 32.9119H209.492C209.639 32.6519 209.763 32.3659 209.855 32.0539C209.856 32.0489 209.857 32.0439 209.859 32.0389H200.94C200.941 32.0439 200.942 32.0489 200.943 32.0539C201.036 32.3659 201.16 32.6519 201.307 32.9119Z" fill="#6A7178"/>
<path d="M210.06 31.073C210.096 30.818 210.125 30.549 210.141 30.256H200.659C200.675 30.549 200.704 30.819 200.74 31.073H210.06Z" fill="#6A7178"/>
<path d="M279.743 44.5333C281.577 33.3026 273.96 22.7112 262.729 20.8767C251.499 19.0423 240.907 26.6595 239.073 37.8903C237.238 49.121 244.856 59.7124 256.086 61.5469C267.317 63.3813 277.908 55.7641 279.743 44.5333Z" fill="#CBD1D7"/>
<path d="M259.416 55.7289C265.025 55.7289 269.573 51.1819 269.573 45.5729C269.573 39.9639 259.416 26.6909 259.416 26.6909C259.416 26.6909 249.26 39.9639 249.26 45.5729C249.259 51.1819 253.806 55.7289 259.416 55.7289ZM256.122 33.7699C254.202 37.7859 252.824 43.1109 253.83 47.1699C254.508 49.9059 257.566 53.4609 261.472 53.7399C260.948 53.8219 260.411 53.8669 259.862 53.8549C254.842 53.7459 250.972 50.3659 250.97 45.3449C250.968 41.5849 253.654 37.4299 256.122 33.7699Z" fill="#4EBFFF"/>
<path d="M97.72 41.21C109.1 41.21 118.325 31.9848 118.325 20.605C118.325 9.22517 109.1 0 97.72 0C86.3402 0 77.115 9.22517 77.115 20.605C77.115 31.9848 86.3402 41.21 97.72 41.21Z" fill="#4EBFFF"/>
<path d="M106.084 12.651C105.827 8.20502 102.15 4.67603 97.6402 4.67603C97.6132 4.67603 97.5882 4.68303 97.5612 4.68403C97.5342 4.68403 97.5092 4.67603 97.4822 4.67603C92.9712 4.67603 89.2952 8.20502 89.0382 12.651H89.0132V22.511H91.3652V13.377H91.3832C91.5692 10.166 94.2242 7.18603 97.4822 7.18603C97.5092 7.18603 97.5342 7.19502 97.5612 7.19502C97.5882 7.19502 97.6132 7.18603 97.6402 7.18603C100.898 7.18603 103.553 10.166 103.739 13.377H103.757V22.511H106.109V12.651H106.084Z" fill="white"/>
<path d="M105.368 34.285H89.9121C88.4231 34.285 87.2161 32.976 87.2161 31.362V19.282C87.2161 17.668 88.4231 16.36 89.9121 16.36H105.368C106.857 16.36 108.064 17.668 108.064 19.282V31.362C108.064 32.976 106.857 34.285 105.368 34.285Z" fill="#6A7178"/>
<path d="M100.316 23.47C100.316 21.992 99.1181 20.794 97.6401 20.794C96.1621 20.794 94.9641 21.992 94.9641 23.47C94.9641 24.451 95.4981 25.299 96.2851 25.765C95.9591 26.353 95.7571 27.148 95.7571 28.028C95.7571 29.834 96.6001 31.298 97.6401 31.298C98.6801 31.298 99.5231 29.834 99.5231 28.028C99.5231 27.148 99.3201 26.353 98.9951 25.765C99.7821 25.3 100.316 24.451 100.316 23.47Z" fill="#212B36"/>
<path d="M313.314 41.21C324.694 41.21 333.919 31.9848 333.919 20.605C333.919 9.22517 324.694 0 313.314 0C301.934 0 292.709 9.22517 292.709 20.605C292.709 31.9848 301.934 41.21 313.314 41.21Z" fill="#4EBFFF"/>
<path d="M324.379 12.582H308.844L305.58 24.976C305.58 24.976 301.382 21.944 300.464 25.116C299.546 28.288 304.832 29.562 306.266 27.885C307.7 26.207 309.873 17.106 309.873 17.106L320.522 17.056L318.46 24.977C318.46 24.977 314.262 21.945 313.344 25.117C312.426 28.289 317.718 29.568 319.146 27.886C320.172 26.678 320.586 24.682 320.803 23.993C321.782 20.876 324.379 12.582 324.379 12.582Z" fill="#6A7178"/>
<path d="M171.947 44.5319C173.782 33.3011 166.164 22.7097 154.934 20.8753C143.703 19.0408 133.112 26.6581 131.277 37.8888C129.443 49.1196 137.06 59.711 148.291 61.5454C159.521 63.3798 170.113 55.7626 171.947 44.5319Z" fill="#CBD1D7"/>
<path d="M147.71 38.3919V28.9709C147.71 28.0179 147.05 27.2959 146.173 27.2959C145.296 27.2959 144.636 28.0179 144.636 28.9709V38.3919H147.71Z" fill="white"/>
<path d="M158.562 38.3919V28.9709C158.562 28.0179 157.902 27.2959 157.025 27.2959C156.148 27.2959 155.488 28.0179 155.488 28.9709V38.3919H158.562Z" fill="white"/>
<path d="M141.601 38.4539V46.9489C141.601 51.4239 146.094 55.0639 151.618 55.0639C157.142 55.0639 161.636 51.4239 161.636 46.9489V38.4539H141.601Z" fill="#4EBFFF"/>
</svg>
