<svg width="60" height="60" viewBox="0 0 60 60" fill="none" xmlns="http://www.w3.org/2000/svg">
<g clip-path="url(#clip0_81_6325)">
<mask id="mask0_81_6325" style="mask-type:luminance" maskUnits="userSpaceOnUse" x="0" y="0" width="60" height="60">
<path d="M0 7.62939e-06H60V60H0V7.62939e-06Z" fill="white"/>
</mask>
<g mask="url(#mask0_81_6325)">
<path d="M17.5671 3.28411C15.6754 1.13243 12.7411 0.469145 10.2093 1.35778C9.71482 1.53145 9.16591 1.45223 8.7513 1.13137C7.73236 0.342583 6.42525 -0.0913639 5.01396 0.0162144C2.31056 0.222347 0.154311 2.44575 0.024467 5.15395C-0.0438533 6.57883 0.438843 7.88934 1.27732 8.89258C1.66755 9.35946 1.76224 10.0155 1.50466 10.5666C0.925757 11.8048 0.827319 13.267 1.35126 14.6492C2.33001 17.2314 5.1929 18.6255 7.82716 17.797C9.16181 17.3773 10.2008 16.4832 10.8297 15.366C11.1172 14.8553 11.6543 14.5389 12.2401 14.5582C14.0305 14.6172 15.8456 13.9731 17.2354 12.6039C19.7838 10.0934 19.929 5.97075 17.5671 3.28411Z" fill="#E9EAEB"/>
<path d="M8.46561 14.6492C7.94166 13.2669 8.0401 11.8048 8.61901 10.5667C8.8767 10.0155 8.7819 9.35944 8.39166 8.89257C7.55319 7.88932 7.07049 6.57882 7.13881 5.15393C7.21229 3.62241 7.93405 2.24628 9.03596 1.3021C8.93658 1.25558 8.84049 1.20015 8.75155 1.13136C7.7326 0.342686 6.42549 -0.0913792 5.0142 0.0161991C2.3108 0.222332 0.154555 2.44573 0.0247111 5.15393C-0.0436092 6.57882 0.439086 7.88932 1.27756 8.89257C1.66768 9.35944 1.76248 10.0155 1.50479 10.5667C0.925883 11.8048 0.827562 13.2669 1.35139 14.6492C2.33014 17.2314 5.19303 18.6256 7.82741 17.7971C8.5978 17.5547 9.26905 17.1536 9.82041 16.6433C9.23471 16.1073 8.76291 15.4335 8.46561 14.6492Z" fill="#BABDC1"/>
<path d="M56.3277 3.41811C55.7151 3.14506 55.0853 2.98029 54.4579 2.91361C54.0455 2.86967 53.6789 2.63037 53.4571 2.2801C52.5897 0.910059 51.0614 -1.90735e-05 49.3198 -1.90735e-05C48.0644 -1.90735e-05 46.9197 0.472832 46.0534 1.25002C45.5366 1.71373 44.7592 1.74982 44.228 1.30275C43.6878 0.848183 43.0503 0.48877 42.3317 0.260138C39.593 -0.611385 36.5994 0.785372 35.5099 3.44482C34.7236 5.36436 35.0862 7.44408 36.253 8.95662C36.577 9.37662 36.6209 9.94627 36.3844 10.4211C35.4288 12.3395 35.1947 14.6306 35.944 16.8678C37.2622 20.8033 41.3219 23.202 45.4068 22.4672C46.5109 22.2685 47.5198 21.8669 48.4064 21.3104C48.8888 21.0076 49.5122 21.0275 49.9769 21.3569C50.7804 21.9266 51.7656 22.2635 52.8408 22.2619C55.2885 22.2582 57.3893 20.4159 57.712 17.9895C57.8347 17.0669 57.6975 16.1779 57.3601 15.3906C57.1213 14.8331 57.2943 14.1848 57.7604 13.797C58.69 13.024 59.4069 11.966 59.7607 10.6902C60.5708 7.76939 59.0964 4.65197 56.3277 3.41811Z" fill="#E9EAEB"/>
<path d="M44.7916 16.8678C44.0422 14.6306 44.2764 12.3396 45.2319 10.4211C45.4684 9.94624 45.4245 9.37659 45.1005 8.95659C43.9338 7.44417 43.5711 5.36433 44.3575 3.44492C44.6772 2.66445 45.1618 1.99378 45.755 1.45625C45.2671 1.71054 44.6646 1.67023 44.228 1.30285C43.6878 0.84816 43.0503 0.488745 42.3316 0.260113C39.5929 -0.61141 36.5995 0.785345 35.51 3.44492C34.7236 5.36433 35.0862 7.44417 36.253 8.95659C36.577 9.37659 36.6208 9.94624 36.3843 10.4211C35.4289 12.3396 35.1946 14.6306 35.9441 16.8678C37.2623 20.8034 41.3219 23.2021 45.4068 22.4673C46.4911 22.2721 47.4827 21.8805 48.3575 21.3394C46.7279 20.3363 45.4339 18.7853 44.7916 16.8678Z" fill="#BABDC1"/>
<path d="M38.6975 32.9034C37.9005 31.7683 36.7362 31.0653 35.489 30.8282C34.7429 30.6863 34.1446 30.1458 33.8782 29.4346C33.2955 27.8784 32.145 26.531 30.5394 25.7331C29.2369 25.0859 27.827 24.8962 26.4909 25.1013C25.8333 25.2022 25.1699 25.0122 24.6689 24.5745C22.9778 23.0971 20.7651 22.2021 18.3432 22.2021C14.8615 22.2021 11.8137 24.0529 10.1256 26.8235C9.75057 27.4388 9.09467 27.8174 8.37573 27.8672C6.83612 27.9741 5.32768 28.6195 4.15733 29.8034C2.26815 31.7147 1.78991 34.4912 2.71475 36.8406C3.02073 37.6177 2.83651 38.4945 2.27752 39.115C2.27413 39.1189 2.27073 39.1228 2.26721 39.1265C-0.976305 42.7404 -0.676186 48.2996 2.93776 51.5431C4.15956 52.6397 5.60366 53.331 7.10553 53.6262C7.87264 53.7771 8.51389 54.3181 8.7601 55.0601C9.71248 57.9298 12.4171 59.9999 15.6063 59.9999C17.861 59.9999 19.8736 58.9654 21.1963 57.3453C21.8475 56.5475 22.9519 56.3111 23.8803 56.7565C24.8056 57.2003 25.8527 57.4305 26.9584 57.3822C30.2976 57.2364 33.0015 54.5159 33.1292 51.1758C33.1474 50.7008 33.114 50.2368 33.0342 49.7888C32.8664 48.8456 33.3294 47.9007 34.1809 47.4616C35.0296 47.024 35.75 46.3198 36.2028 45.3965C36.6926 44.3977 36.7878 43.3082 36.5494 42.3044C36.3414 41.4295 36.6908 40.5024 37.4296 39.9896C37.5974 39.8732 37.7601 39.7454 37.9172 39.6058C39.8297 37.906 40.1679 34.9974 38.6975 32.9034Z" fill="#E9EAEB"/>
<path d="M19.8611 55.0601C19.6149 54.318 18.9736 53.777 18.2065 53.6262C16.7046 53.3309 15.2605 52.6396 14.0387 51.543C10.4248 48.2994 10.1247 42.7404 13.3682 39.1264C13.3716 39.1226 13.3751 39.1188 13.3785 39.115C13.9375 38.4944 14.1216 37.6177 13.8157 36.8406C12.8909 34.491 13.3691 31.7147 15.2583 29.8034C16.4287 28.6193 17.9371 27.9739 19.4767 27.8672C20.1955 27.8173 20.8516 27.4387 21.2266 26.8234C21.9119 25.6985 22.8214 24.7254 23.8929 23.966C22.3247 22.856 20.4108 22.2019 18.3433 22.2019C14.8615 22.2019 11.8137 24.0527 10.1255 26.8234C9.75062 27.4387 9.0946 27.8173 8.37577 27.8672C6.83616 27.9739 5.32761 28.6193 4.15737 29.8034C2.2682 31.7147 1.78995 34.491 2.7148 36.8406C3.02066 37.6177 2.83655 38.4944 2.27757 39.115C2.27417 39.1188 2.27066 39.1226 2.26726 39.1264C-0.976374 42.7404 -0.67614 48.2994 2.9378 51.543C4.1596 52.6396 5.6037 53.3309 7.10546 53.6262C7.87269 53.777 8.51382 54.318 8.76015 55.0601C9.71241 57.9298 12.417 59.9999 15.6064 59.9999C17.8395 59.9999 19.834 58.9841 21.1571 57.3906C20.5907 56.7082 20.1467 55.9205 19.8611 55.0601Z" fill="#BABDC1"/>
<path d="M31.023 13.5567C31.023 15.9727 29.0646 17.9311 26.6487 17.9311C24.2327 17.9311 22.2742 15.9727 22.2742 13.5567C22.2742 11.1408 24.2327 9.18234 26.6487 9.18234C29.0646 9.18234 31.023 11.1408 31.023 13.5567Z" fill="#E9EAEB"/>
<path d="M26.1012 13.5567C26.1012 11.827 27.1052 10.3323 28.5621 9.62238C27.984 9.34066 27.3349 9.18234 26.6487 9.18234C24.2327 9.18234 22.2742 11.1408 22.2742 13.5567C22.2742 15.9727 24.2327 17.9311 26.6487 17.9311C27.3349 17.9311 27.984 17.7728 28.5621 17.4911C27.1052 16.7811 26.1012 15.2864 26.1012 13.5567Z" fill="#BABDC1"/>
<path d="M53.5393 44.3457C53.3328 44.3457 53.1286 44.3557 52.9272 44.3751C52.4365 44.4222 51.9616 44.2153 51.6259 43.8543C50.6398 42.7933 49.2091 42.1511 47.63 42.2248C45.0215 42.3467 42.8972 44.4594 42.762 47.0673C42.7277 47.7296 42.8194 48.366 43.0154 48.955C43.1886 49.476 43.064 50.0514 42.7069 50.4686C41.7739 51.5584 41.2394 52.9994 41.3303 54.5664C41.4987 57.4709 43.8503 59.822 46.7548 59.9901C48.7386 60.1048 50.52 59.2174 51.6426 57.7878C51.9644 57.3781 52.4737 57.1602 52.9927 57.2049C53.1728 57.2203 53.355 57.2283 53.5393 57.2283C57.0967 57.2283 59.9806 54.3444 59.9806 50.787C59.9806 47.2295 57.0967 44.3457 53.5393 44.3457Z" fill="#E9EAEB"/>
<path d="M48.1034 54.5665C48.0125 52.9994 48.5471 51.5585 49.48 50.4685C49.8371 50.0515 49.9616 49.4761 49.7884 48.955C49.5926 48.3661 49.5007 47.7296 49.5351 47.0673C49.6083 45.6552 50.2656 44.389 51.2664 43.5047C50.3068 42.6552 49.0267 42.1596 47.63 42.2249C45.0214 42.3467 42.8972 44.4595 42.762 47.0673C42.7277 47.7296 42.8194 48.3661 43.0152 48.955C43.1886 49.4761 43.064 50.0515 42.7069 50.4685C41.7739 51.5585 41.2394 52.9994 41.3303 54.5665C41.4987 57.4708 43.8503 59.8221 46.7548 59.9901C48.1531 60.071 49.4497 59.6523 50.4871 58.8984C49.1255 57.9086 48.2064 56.3414 48.1034 54.5665Z" fill="#BABDC1"/>
<path d="M57.3463 32.3638C57.3463 35.2512 55.0056 37.5919 52.1182 37.5919C49.2308 37.5919 46.8901 35.2512 46.8901 32.3638C46.8901 29.4764 49.2308 27.1357 52.1182 27.1357C55.0056 27.1357 57.3463 29.4764 57.3463 32.3638Z" fill="#E9EAEB"/>
<path d="M51.3506 32.3638C51.3506 30.2743 52.5768 28.4719 54.3485 27.6348C53.6719 27.3151 52.9162 27.1357 52.1182 27.1357C49.2308 27.1357 46.8901 29.4764 46.8901 32.3638C46.8901 35.2512 49.2308 37.5919 52.1182 37.5919C52.9162 37.5919 53.6719 37.4125 54.3485 37.0928C52.5768 36.2557 51.3506 34.4533 51.3506 32.3638Z" fill="#BABDC1"/>
<path d="M15.8409 46.8237C15.8409 48.4862 14.4932 49.834 12.8306 49.834C11.1681 49.834 9.82031 48.4862 9.82031 46.8237C9.82031 45.1612 11.1681 43.8134 12.8306 43.8134C14.4932 43.8134 15.8409 45.1612 15.8409 46.8237Z" fill="#E9EAEB"/>
<path d="M9.82031 46.8237C9.82031 48.3943 11.0232 49.6832 12.5579 49.8211C11.4775 48.1755 11.0017 46.2364 11.1464 44.3283C10.3462 44.8694 9.82031 45.7851 9.82031 46.8237Z" fill="#E9EAEB"/>
<path d="M28.5621 36.2622C28.5621 38.4151 26.8167 40.1605 24.6637 40.1605C22.5108 40.1605 20.7654 38.4151 20.7654 36.2622C20.7654 34.1092 22.5108 32.3638 24.6637 32.3638C26.8167 32.3638 28.5621 34.1092 28.5621 36.2622Z" fill="#E9EAEB"/>
<path d="M53.5128 12.9162C53.5128 15.0692 51.7674 16.8146 49.6144 16.8146C47.4615 16.8146 45.7161 15.0692 45.7161 12.9162C45.7161 10.7633 47.4615 9.01789 49.6144 9.01789C51.7674 9.01789 53.5128 10.7633 53.5128 12.9162Z" fill="#E9EAEB"/>
</g>
</g>
<defs>
<clipPath id="clip0_81_6325">
<rect width="60" height="60" fill="white"/>
</clipPath>
</defs>
</svg>
