<svg width="70" height="70" viewBox="0 0 70 70" fill="none" xmlns="http://www.w3.org/2000/svg">
<path d="M6.69905 1.83859L6.33319 2.20445C6.10541 2.43223 5.736 2.43223 5.50823 2.20445L5.14237 1.83859C4.25397 0.950195 2.8068 0.868437 1.87766 1.71404C0.885487 2.61694 0.85828 4.15407 1.79603 5.09182L2.20852 5.5043C2.43629 5.73208 2.43629 6.10149 2.20852 6.32926L1.84266 6.69512C0.954257 7.58352 0.872499 9.03069 1.71811 9.95983C2.621 10.952 4.15813 10.9792 5.09588 10.0415L5.50836 9.62897C5.73614 9.4012 6.10555 9.4012 6.33332 9.62897L6.69918 9.99483C7.58758 10.8832 9.03475 10.965 9.96389 10.1194C10.9561 9.21649 10.9833 7.67936 10.0455 6.74161L9.63303 6.32913C9.40526 6.10135 9.40526 5.73194 9.63303 5.50417L10.0455 5.09168C10.9831 4.15407 10.9559 2.6168 9.96389 1.71391C9.03462 0.868437 7.58745 0.950195 6.69905 1.83859Z" fill="#F9FAFB"/>
<path d="M28.9327 3.06453L28.5668 3.43039C28.3391 3.65816 27.9696 3.65816 27.7419 3.43039L27.376 3.06453C26.4876 2.17613 25.0404 2.09437 24.1113 2.93998C23.1191 3.84287 23.0919 5.38 24.0297 6.31775L24.4422 6.73023C24.6699 6.95801 24.6699 7.32742 24.4422 7.5552L24.0763 7.92105C23.1879 8.80945 23.1061 10.2566 23.9517 11.1858C24.8546 12.1779 26.3918 12.2051 27.3295 11.2674L27.742 10.8549C27.9698 10.6271 28.3392 10.6271 28.567 10.8549L28.9328 11.2208C29.8212 12.1092 31.2684 12.1909 32.1975 11.3453C33.1897 10.4424 33.2169 8.90529 32.2792 7.96754L31.8667 7.55506C31.6389 7.32728 31.6389 6.95787 31.8667 6.7301L32.2792 6.31762C33.2168 5.38 33.1896 3.84273 32.1975 2.93984C31.2683 2.09451 29.8211 2.17613 28.9327 3.06453Z" fill="#F9FAFB"/>
<path d="M6.3759 32.2362L6.74176 31.8704C6.96954 31.6426 7.33895 31.6426 7.56672 31.8704L7.93258 32.2362C8.82098 33.1246 10.2682 33.2064 11.1973 32.3608C12.1895 31.4579 12.2167 29.9208 11.2789 28.983L10.8664 28.5705C10.6387 28.3428 10.6387 27.9733 10.8664 27.7456L11.2323 27.3797C12.1207 26.4913 12.2025 25.0441 11.3568 24.1149C10.454 23.1227 8.91682 23.0955 7.97907 24.0332L7.56659 24.4457C7.33881 24.6735 6.9694 24.6735 6.74162 24.4457L6.37576 24.0799C5.48737 23.1915 4.0402 23.1097 3.11105 23.9555C2.11889 24.8583 2.09168 26.3955 3.02943 27.3332L3.44191 27.7457C3.66969 27.9735 3.66969 28.3429 3.44191 28.5707L3.02943 28.9832C2.09182 29.9208 2.11902 31.458 3.11105 32.3609C4.04033 33.2063 5.4875 33.1246 6.3759 32.2362Z" fill="#F9FAFB"/>
<path d="M63.3012 68.1614L63.6671 67.7955C63.8948 67.5678 64.2642 67.5678 64.492 67.7955L64.8579 68.1614C65.7463 69.0498 67.1934 69.1316 68.1226 68.286C69.1148 67.3831 69.142 65.8459 68.2042 64.9082L67.7917 64.4957C67.564 64.2679 67.564 63.8985 67.7917 63.6707L68.1576 63.3049C69.046 62.4165 69.1277 60.9693 68.2821 60.0402C67.3792 59.048 65.8421 59.0208 64.9044 59.9585L64.4919 60.371C64.2641 60.5988 63.8947 60.5988 63.6669 60.371L63.3011 60.0052C62.4127 59.1168 60.9655 59.035 60.0363 59.8806C59.0442 60.7835 59.017 62.3206 59.9547 63.2584L60.3672 63.6709C60.595 63.8986 60.595 64.2681 60.3672 64.4958L59.9547 64.9083C59.0171 65.8459 59.0443 67.3832 60.0363 68.2861C60.9656 69.1316 62.4128 69.0498 63.3012 68.1614Z" fill="#F9FAFB"/>
<path d="M41.0676 66.9354L41.4334 66.5696C41.6612 66.3418 42.0306 66.3418 42.2584 66.5696L42.6242 66.9354C43.5126 67.8238 44.9598 67.9056 45.8889 67.06C46.8811 66.1571 46.9083 64.62 45.9706 63.6822L45.5581 63.2697C45.3303 63.042 45.3303 62.6726 45.5581 62.4448L45.9239 62.0789C46.8123 61.1905 46.8941 59.7434 46.0485 58.8142C45.1456 57.822 43.6085 57.7948 42.6707 58.7326L42.2582 59.1451C42.0305 59.3728 41.661 59.3728 41.4333 59.1451L41.0674 58.7792C40.179 57.8908 38.7318 57.8091 37.8027 58.6547C36.8105 59.5576 36.7833 61.0947 37.7211 62.0324L38.1336 62.4449C38.3613 62.6727 38.3613 63.0421 38.1336 63.2699L37.7211 63.6824C36.7835 64.62 36.8107 66.1572 37.8027 67.0601C38.732 67.9055 40.1792 67.8238 41.0676 66.9354Z" fill="#F9FAFB"/>
<path d="M63.6243 37.7637L63.2585 38.1296C63.0307 38.3574 62.6613 38.3574 62.4335 38.1296L62.0677 37.7637C61.1793 36.8753 59.7321 36.7936 58.803 37.6393C57.8108 38.5422 57.7836 40.0793 58.7213 41.0171L59.1338 41.4296C59.3616 41.6573 59.3616 42.0268 59.1338 42.2545L58.7679 42.6204C57.8795 43.5088 57.7978 44.956 58.6434 45.8851C59.5463 46.8773 61.0834 46.9045 62.0212 45.9667L62.4337 45.5542C62.6614 45.3265 63.0308 45.3265 63.2586 45.5542L63.6245 45.9201C64.5129 46.8085 65.96 46.8903 66.8892 46.0447C67.8814 45.1418 67.9086 43.6046 66.9708 42.6669L66.5583 42.2544C66.3306 42.0266 66.3306 41.6572 66.5583 41.4294L66.9708 41.017C67.9084 40.0793 67.8812 38.5421 66.8892 37.6392C65.9599 36.7937 64.5127 36.8753 63.6243 37.7637Z" fill="#F9FAFB"/>
<path d="M67.2664 2.73369C63.6215 -0.911231 57.7121 -0.911231 54.0671 2.73369L16.1278 40.6729C15.3208 41.48 14.2456 41.9581 13.1066 42.0304C9.82701 42.2383 6.60687 43.5942 4.10054 46.1005C-1.36685 51.5679 -1.36685 60.4322 4.10054 65.8995C9.56793 71.3668 18.4322 71.3668 23.8996 65.8995C26.406 63.3931 27.7618 60.173 27.9697 56.8934C28.0419 55.7544 28.5202 54.6792 29.3272 53.8722L67.2666 15.9329C70.9114 12.2882 70.9114 6.37876 67.2664 2.73369Z" fill="#CCECFF"/>
<path d="M20.8824 49.1328H23.3127L62.3877 10.0579L59.8367 7.50683L58.0358 7.24146C57.7112 7.40798 57.4072 7.62564 57.1381 7.8947L20.8484 44.1844L20.8824 44.183V49.1328Z" fill="#CAECFF"/>
<path d="M56 12.7231C55.7297 12.7231 55.4593 12.6198 55.253 12.4137L52.9197 10.0804C52.5072 9.6678 52.5072 8.99911 52.9197 8.58636C53.3323 8.17401 54.001 8.17401 54.4138 8.58636L56.747 10.9196C57.1595 11.3322 57.1595 12.0009 56.747 12.4137C56.5407 12.62 56.2703 12.7231 56 12.7231Z" fill="#828F9A"/>
<path d="M48.4169 20.3064C48.1466 20.3064 47.8761 20.2032 47.67 19.997L45.3366 17.6638C44.924 17.2513 44.924 16.5824 45.3364 16.1699C45.7491 15.7573 46.4179 15.7574 46.8304 16.1697L49.1637 18.503C49.5764 18.9155 49.5764 19.5843 49.1639 19.9968C48.9576 20.2034 48.6872 20.3064 48.4169 20.3064Z" fill="#828F9A"/>
<path d="M40.8336 27.8898C40.5633 27.8898 40.2929 27.7866 40.0867 27.5804L37.7533 25.2472C37.3407 24.8347 37.3407 24.1658 37.7532 23.7533C38.1658 23.3407 38.8346 23.3408 39.247 23.7531L41.5804 26.0864C41.993 26.4989 41.993 27.1677 41.5805 27.5802C41.3743 27.7866 41.1039 27.8898 40.8336 27.8898Z" fill="#828F9A"/>
<path d="M33.25 35.4732C32.9797 35.4732 32.7093 35.37 32.503 35.1638L30.1697 32.8306C29.7572 32.418 29.7572 31.7491 30.1697 31.3365C30.5823 30.9242 31.251 30.9242 31.6638 31.3365L33.997 33.6698C34.4095 34.0824 34.4095 34.7511 33.997 35.1638C33.7907 35.37 33.5203 35.4732 33.25 35.4732Z" fill="#828F9A"/>
<path d="M25.6667 43.0566C25.3964 43.0566 25.126 42.9534 24.9197 42.7472L22.5865 40.4139C22.174 40.0013 22.174 39.3326 22.5865 38.9199C22.9991 38.5075 23.6678 38.5075 24.0805 38.9199L26.4138 41.2531C26.8263 41.6657 26.8263 42.3344 26.4138 42.7472C26.2075 42.9534 25.937 43.0566 25.6667 43.0566Z" fill="#828F9A"/>
<path d="M9.63291 6.32926C9.40514 6.10149 9.40514 5.73207 9.63291 5.5043L10.0454 5.09182C10.983 4.1542 10.9558 2.61693 9.96377 1.71404C9.03449 0.868435 7.58746 0.950056 6.69906 1.83859L6.63836 1.8993C7.4476 2.81572 7.41451 4.21545 6.53814 5.09182L6.12566 5.5043C5.89789 5.73207 5.89789 6.10149 6.12566 6.32926L6.53814 6.74174C7.41451 7.61811 7.4476 9.01784 6.63822 9.93426L6.69893 9.99497C7.58733 10.8834 9.0345 10.9651 9.96364 10.1195C10.9558 9.21663 10.983 7.6795 10.0453 6.74174L9.63291 6.32926Z" fill="#ACE0FF"/>
<path d="M31.8664 7.55517C31.6387 7.32739 31.6387 6.95798 31.8664 6.7302L32.2789 6.31772C33.2165 5.3801 33.1893 3.84284 32.1973 2.93995C31.2682 2.09434 29.821 2.1761 28.9325 3.0645L28.8718 3.1252C29.681 4.04163 29.6479 5.44135 28.7715 6.31772L28.3591 6.7302C28.1313 6.95798 28.1313 7.32739 28.3591 7.55517L28.7715 7.96765C29.6479 8.84401 29.6809 10.2437 28.8716 11.1602L28.9325 11.2209C29.8209 12.1093 31.268 12.191 32.1972 11.3454C33.1893 10.4425 33.2165 8.9054 32.2788 7.96765L31.8664 7.55517Z" fill="#ACE0FF"/>
<path d="M11.2789 28.9829L10.8664 28.5704C10.6387 28.3426 10.6387 27.9732 10.8664 27.7454L11.2323 27.3796C12.1207 26.4912 12.2025 25.044 11.3569 24.1147C10.454 23.1225 8.91684 23.0953 7.97908 24.0331L7.87107 24.1411C8.69221 25.0712 8.60526 26.4992 7.72492 27.3796L7.35906 27.7454C7.13129 27.9732 7.13129 28.3426 7.35906 28.5704L7.77154 28.9829C8.64791 29.8592 8.681 31.259 7.87176 32.1754L7.93246 32.2362C8.82086 33.1246 10.268 33.2064 11.1972 32.3606C12.1893 31.4579 12.2165 29.9206 11.2789 28.9829Z" fill="#ACE0FF"/>
<path d="M68.2042 64.9081L67.7917 64.4957C67.564 64.2679 67.564 63.8985 67.7917 63.6707L68.1576 63.3048C69.046 62.4164 69.1278 60.9693 68.2822 60.0401C67.3793 59.048 65.8421 59.0208 64.9044 59.9585L64.7964 60.0665C65.6175 60.9966 65.5305 62.4246 64.6502 63.305L64.2844 63.6708C64.0566 63.8986 64.0566 64.268 64.2844 64.4958L64.6968 64.9083C65.5732 65.7846 65.6062 67.1844 64.7969 68.1008L64.8576 68.1615C65.746 69.0499 67.1932 69.1317 68.1223 68.2861C69.1146 67.383 69.142 65.8458 68.2042 64.9081Z" fill="#ACE0FF"/>
<path d="M45.9705 63.6822L45.558 63.2697C45.3302 63.042 45.3302 62.6726 45.558 62.4448L45.9239 62.0789C46.8123 61.1905 46.894 59.7434 46.0483 58.8142C45.1454 57.822 43.6082 57.7948 42.6705 58.7326L42.5625 58.8406C43.3836 59.7706 43.2967 61.1987 42.4163 62.0791L42.0505 62.4449C41.8227 62.6728 41.8227 63.0421 42.0505 63.2699L42.4629 63.6824C43.3393 64.5587 43.3723 65.9585 42.563 66.8749L42.6237 66.9356C43.5121 67.824 44.9593 67.9057 45.8886 67.0601C46.8809 66.1571 46.9081 64.6198 45.9705 63.6822Z" fill="#ACE0FF"/>
<path d="M66.558 42.2544C66.3301 42.0266 66.3302 41.6572 66.558 41.4294L66.9704 41.0169C67.9081 40.0793 67.8809 38.542 66.8888 37.6393C65.9597 36.7937 64.5125 36.8753 63.6241 37.7637L63.5633 37.8244C64.3725 38.7408 64.3394 40.1406 63.4632 41.0169L63.0507 41.4294C62.8229 41.6572 62.8229 42.0266 63.0507 42.2544L63.4632 42.6669C64.3396 43.5432 64.3725 44.9428 63.5633 45.8594L63.6241 45.9201C64.5125 46.8085 65.9597 46.8902 66.8888 46.0446C67.881 45.1417 67.9082 43.6045 66.9704 42.6669L66.558 42.2544Z" fill="#ACE0FF"/>
<path d="M67.2665 2.7337C65.2298 0.696866 62.4858 -0.200557 59.8251 0.0389743C61.0701 0.49042 62.2388 1.21339 63.2371 2.21171C66.8819 5.85664 66.8819 11.766 63.2371 15.411L25.2977 53.3502C24.4907 54.1572 24.0126 55.2324 23.9402 56.3714C23.7323 59.6509 22.3765 62.871 19.8701 65.3775C17.1941 68.0535 13.7042 69.4188 10.1973 69.4752C14.9135 70.8015 20.1888 69.6103 23.8995 65.8995C26.4058 63.3931 27.7617 60.173 27.9696 56.8934C28.0418 55.7544 28.5201 54.6792 29.3271 53.8722L67.2665 15.933C70.9114 12.2882 70.9114 6.37877 67.2665 2.7337Z" fill="#CAECFF"/>
<path d="M62.1909 7.88747C61.094 6.74805 59.3844 6.5494 58.0358 7.24147C58.0733 7.27702 58.1106 7.31311 58.1469 7.35071C59.4661 8.72104 59.4502 10.9013 58.0994 12.2522L17.4079 52.9436C16.913 53.4385 16.6523 54.1299 16.7317 54.8254C16.9656 56.8723 16.2987 59.0024 14.7286 60.5725C13.6525 61.6486 12.3129 62.2993 10.9177 62.5283C13.4993 63.7054 16.6484 63.2335 18.7728 61.1093C20.3429 59.5392 21.0098 57.4091 20.7758 55.3621C20.6964 54.6668 20.9571 53.9753 21.4519 53.4803L62.1434 12.789C63.4942 11.4381 63.5101 9.2578 62.1909 7.88747Z" fill="#ACE0FF"/>
<path d="M62.1909 7.88747C61.094 6.74805 59.3845 6.5494 58.0359 7.24147C58.0734 7.27702 58.1107 7.31311 58.1469 7.35071C59.4661 8.72104 59.4503 10.9013 58.0995 12.2522L21.2188 49.1328H25.7995L62.1435 12.789C63.4943 11.4381 63.5101 9.2578 62.1909 7.88747Z" fill="#ACE0FF"/>
<path d="M25.7994 49.1328L20.8497 44.183L16.4976 48.5349C16.0006 49.0319 15.3054 49.2835 14.6071 49.2051C12.435 48.9612 10.171 49.731 8.58283 51.5177C6.20911 54.1884 6.25437 58.2894 8.68236 60.9109C11.3965 63.8414 15.9745 63.9075 18.7728 61.1093C20.3428 59.5392 21.0098 57.4091 20.7758 55.3621C20.6964 54.6668 20.9571 53.9753 21.4519 53.4803L25.7994 49.1328Z" fill="#FF3333"/>
<path d="M25.7996 49.1328L23.5091 46.8423L17.4079 52.9436C16.913 53.4385 16.6523 54.1299 16.7317 54.8254C16.9656 56.8723 16.2987 59.0024 14.7286 60.5725C13.6525 61.6486 12.3129 62.2992 10.9177 62.5282C13.4993 63.7054 16.6484 63.2334 18.7728 61.1092C20.3429 59.5392 21.0098 57.4091 20.7758 55.3621C20.6964 54.6668 20.9571 53.9752 21.4519 53.4803L25.7996 49.1328Z" fill="#FF3333"/>
</svg>
